<?xml version="1.0" standalone="no"?>
<!DOCTYPE svg PUBLIC "-//W3C//DTD SVG 20010904//EN"
 "http://www.w3.org/TR/2001/REC-SVG-20010904/DTD/svg10.dtd">
<svg version="1.0" xmlns="http://www.w3.org/2000/svg"
 width="512.000000pt" height="512.000000pt" viewBox="0 0 512.000000 512.000000"
 preserveAspectRatio="xMidYMid meet">
<metadata>
Created by potrace 1.14, written by Peter Selinger 2001-2017
</metadata>
<g transform="translate(0.000000,512.000000) scale(0.100000,-0.100000)"
fill="#000000" stroke="none">
<path d="M1164 4778 c-4 -6 -7 -323 -7 -704 l0 -693 -200 -223 c-429 -478
-398 -432 -411 -633 -4 -49 -8 -115 -11 -145 -3 -30 -7 -84 -9 -120 -3 -36 -8
-108 -12 -160 -4 -52 -8 -109 -8 -126 l0 -30 -82 -1 c-46 0 -87 -4 -93 -7 -11
-7 -15 -412 -4 -453 3 -16 13 -23 29 -23 13 0 24 -6 24 -12 1 -18 1 -756 0
-794 l0 -32 -120 1 c-128 0 -155 -8 -134 -41 11 -16 153 -17 2420 -19 1325 -1
2419 0 2432 3 24 5 31 37 10 50 -6 4 -65 7 -130 6 -115 0 -118 0 -118 21 -1
33 -1 726 -1 775 1 38 4 42 25 42 13 0 26 6 29 14 3 7 6 113 6 235 1 184 -2
223 -13 227 -8 3 -50 6 -93 7 l-78 2 -1 30 c-1 40 -15 221 -19 265 -2 19 -6
78 -9 132 -15 244 -21 291 -47 344 -11 23 -79 109 -152 190 -73 82 -146 164
-162 183 -17 18 -43 48 -60 66 -59 63 -166 184 -184 207 -17 22 -18 59 -19
715 0 380 -3 696 -6 702 -10 16 -2782 16 -2792 -1z m2611 -3916 c0 -226 0
-233 -20 -237 -11 -2 -558 -3 -1215 -2 l-1195 2 -1 230 c0 127 1 233 2 236 2
3 549 6 1216 5 l1213 -1 0 -233z"/>
<path d="M131 381 c-7 -5 -11 -17 -9 -27 3 -18 17 -19 209 -22 184 -2 207 -1
213 14 15 39 -8 43 -208 43 -105 0 -197 -4 -205 -8z"/>
<path d="M791 372 c-4 -9 -6 -23 -4 -29 4 -10 367 -13 1773 -13 1623 0 1768 1
1774 16 17 45 83 43 -1775 43 -1645 0 -1759 -1 -1768 -17z"/>
<path d="M4581 376 c-6 -7 -9 -21 -5 -30 6 -15 29 -16 213 -14 192 3 206 4
209 22 2 10 -2 22 -8 26 -7 4 -99 8 -205 9 -153 1 -195 -1 -204 -13z"/>
</g>
</svg>
